<svg width="80" height="80" viewBox="0 0 80 80" fill="none" xmlns="http://www.w3.org/2000/svg">
<rect width="80" height="80" rx="8" fill="#00A9CE"/>
<path d="M39.5 63L48.6667 50.7333C46.1204 48.8167 42.9375 47.6667 39.5 47.6667C36.0625 47.6667 32.8796 48.8167 30.3333 50.7333L39.5 63ZM39.5 17C29.1875 17 19.6644 20.4244 12 26.2L16.5833 32.3333C22.9491 27.5289 30.8935 24.6667 39.5 24.6667C48.1065 24.6667 56.0509 27.5289 62.4167 32.3333L67 26.2C59.3356 20.4244 49.8125 17 39.5 17ZM39.5 32.3333C32.625 32.3333 26.2847 34.6078 21.1667 38.4667L25.75 44.6C29.5694 41.7122 34.331 40 39.5 40C44.669 40 49.4306 41.7122 53.25 44.6L57.8333 38.4667C52.7153 34.6078 46.375 32.3333 39.5 32.3333Z" fill="white"/>
<rect x="53" y="53" width="20" height="20" rx="10" fill="white"/>
<path d="M64.9961 66.003L63.6648 67.319V64.687M63.6648 58.681L64.9961 59.997L63.6648 61.306M67 59.997L62.9567 56H62.2486V61.306L58.9984 58.1L58 59.087L61.9583 63L58 66.906L58.9984 67.9L62.2486 64.687V70H62.9567L67 66.003L63.9552 63L67 59.997Z" fill="#00A9CE"/>
</svg>
